<?xml version="1.0" encoding="iso-8859-1"?>
<!-- Generator: Adobe Illustrator 18.1.1, SVG Export Plug-In . SVG Version: 6.00 Build 0)  -->
<svg version="1.1" id="Capa_1" xmlns="http://www.w3.org/2000/svg" xmlns:xlink="http://www.w3.org/1999/xlink" x="0px" y="0px"
	 viewBox="0 0 343.153 343.153" style="enable-background:new 0 0 343.153 343.153;" xml:space="preserve">
<g>
	<g>
		<path style="fill:#010002;" d="M171.739,343.151c29.22,0,58.839-7.476,85.929-23.193c81.949-47.55,109.838-152.525,62.288-234.474
			C288.129,30.63,230.573-0.004,171.417,0.002c-29.22,0-58.839,7.476-85.929,23.193C3.533,70.745-24.35,175.721,23.194,257.67
			C55.021,312.523,112.578,343.151,171.739,343.151z M172.258,136.214c12.435,0,24.035,6.671,30.264,17.405
			c9.666,16.66,3.974,38.075-12.68,47.735c-5.328,3.091-11.373,4.726-17.471,4.726c-12.435,0-24.035-6.671-30.264-17.405
			c-4.684-8.067-5.943-17.477-3.544-26.493c2.399-9.016,8.157-16.558,16.23-21.242C160.11,137.849,166.154,136.214,172.258,136.214z
			 M27.615,188.454l84.706-10.806c0.555-0.072,1.02-0.251,1.545-0.358c0.835,8.002,3.288,15.955,7.584,23.366
			c4.714,8.127,11.14,14.601,18.485,19.446l-46.124,76.847c-20.305-12.584-37.645-30.007-49.979-51.255
			c-10.496-18.086-16.677-37.502-18.921-57.061C25.784,188.615,26.673,188.573,27.615,188.454z M259.53,290.177l-52.007-69.866
			c-0.34-0.495-0.698-0.901-1.056-1.331c14.207-10.12,22.686-25.669,24.303-42.126l87.122,6.355c0.28,0.018,0.549,0.018,0.823,0.024
			C315.368,224.715,294.627,264.191,259.53,290.177z M233.556,37.689c-0.006,0.018-0.018,0.03-0.03,0.048l-39.113,75.815
			c-0.483,0.931-0.764,1.844-1.08,2.763c-6.713-2.572-13.855-3.962-21.081-3.962c-9.41,0-18.909,2.357-27.728,7.095l-41.398-78.649
			c21.105-11.051,44.561-16.928,68.291-16.928C193.202,23.87,214.349,28.78,233.556,37.689z"/>
	</g>
</g>
<g>
</g>
<g>
</g>
<g>
</g>
<g>
</g>
<g>
</g>
<g>
</g>
<g>
</g>
<g>
</g>
<g>
</g>
<g>
</g>
<g>
</g>
<g>
</g>
<g>
</g>
<g>
</g>
<g>
</g>
</svg>
